<svg width="200" height="200" viewBox="0 0 200 200" fill="none" xmlns="http://www.w3.org/2000/svg">
<g clip-path="url(#clip0_167_12)">
<path d="M107.292 47.9167C111.25 45.4861 113.889 41.0764 113.889 36.1111C113.889 28.4375 107.674 22.2222 100 22.2222C92.3264 22.2222 86.1111 28.4375 86.1111 36.1111C86.1111 41.1111 88.75 45.4861 92.7083 47.9167L72.8125 87.7083C69.6528 94.0278 61.4583 95.8333 55.9375 91.4236L25 66.6667C26.7361 64.3403 27.7778 61.4583 27.7778 58.3333C27.7778 50.6597 21.5625 44.4444 13.8889 44.4444C6.21528 44.4444 0 50.6597 0 58.3333C0 66.0069 6.21528 72.2222 13.8889 72.2222C13.9583 72.2222 14.0625 72.2222 14.1319 72.2222L30 159.514C31.9097 170.069 41.1111 177.778 51.875 177.778H148.125C158.854 177.778 168.056 170.104 170 159.514L185.868 72.2222C185.937 72.2222 186.042 72.2222 186.111 72.2222C193.785 72.2222 200 66.0069 200 58.3333C200 50.6597 193.785 44.4444 186.111 44.4444C178.437 44.4444 172.222 50.6597 172.222 58.3333C172.222 61.4583 173.264 64.3403 175 66.6667L144.062 91.4236C138.542 95.8333 130.347 94.0278 127.187 87.7083L107.292 47.9167Z" fill="#CE8946"/>
<path d="M89 115.571C89 114.149 90.1172 113 91.5 113H110.25C111.281 113 112.203 113.651 112.578 114.639C112.953 115.628 112.695 116.753 111.938 117.468L101.68 127.143H103.375C109.242 127.143 114 132.037 114 138.071C114 144.106 109.242 149 103.375 149H97.2344C93.9219 149 90.8906 147.071 89.4141 144.026L89.2656 143.721C88.6484 142.451 89.1484 140.908 90.3828 140.273C91.6172 139.638 93.1172 140.153 93.7344 141.422L93.8828 141.728C94.5156 143.037 95.8203 143.857 97.2344 143.857H103.375C106.484 143.857 109 141.27 109 138.071C109 134.873 106.484 132.286 103.375 132.286H95.25C94.2188 132.286 93.2969 131.635 92.9219 130.646C92.5469 129.658 92.8047 128.533 93.5625 127.818L103.82 118.143H91.5C90.1172 118.143 89 116.994 89 115.571Z" fill="white"/>
</g>
<defs>
<clipPath id="clip0_167_12">
<rect width="200" height="200" fill="white"/>
</clipPath>
</defs>
</svg>
