<svg width="200" height="200" viewBox="0 0 200 200" fill="none" xmlns="http://www.w3.org/2000/svg">
<g clip-path="url(#clip0_167_2)">
<path d="M107.292 47.9167C111.25 45.4861 113.889 41.0764 113.889 36.1111C113.889 28.4375 107.674 22.2222 100 22.2222C92.3264 22.2222 86.1111 28.4375 86.1111 36.1111C86.1111 41.1111 88.75 45.4861 92.7083 47.9167L72.8125 87.7083C69.6528 94.0278 61.4583 95.8333 55.9375 91.4236L25 66.6667C26.7361 64.3403 27.7778 61.4583 27.7778 58.3333C27.7778 50.6597 21.5625 44.4444 13.8889 44.4444C6.21528 44.4444 0 50.6597 0 58.3333C0 66.0069 6.21528 72.2222 13.8889 72.2222C13.9583 72.2222 14.0625 72.2222 14.1319 72.2222L30 159.514C31.9097 170.069 41.1111 177.778 51.875 177.778H148.125C158.854 177.778 168.056 170.104 170 159.514L185.868 72.2222C185.937 72.2222 186.042 72.2222 186.111 72.2222C193.785 72.2222 200 66.0069 200 58.3333C200 50.6597 193.785 44.4444 186.111 44.4444C178.437 44.4444 172.222 50.6597 172.222 58.3333C172.222 61.4583 173.264 64.3403 175 66.6667L144.062 91.4236C138.542 95.8333 130.347 94.0278 127.187 87.7083L107.292 47.9167Z" fill="#FFD700"/>
<path d="M102.625 119.572C102.625 118.624 101.99 117.756 100.975 117.306C99.959 116.856 98.7285 116.905 97.7715 117.435L88.3965 122.578C86.9512 123.365 86.5703 124.956 87.5273 126.145C88.4844 127.335 90.4277 127.648 91.8633 126.861L96.375 124.378V147.857H90.125C88.3965 147.857 87 149.006 87 150.429C87 151.851 88.3965 153 90.125 153H99.5H108.875C110.604 153 112 151.851 112 150.429C112 149.006 110.604 147.857 108.875 147.857H102.625V119.572Z" fill="white"/>
</g>
<defs>
<clipPath id="clip0_167_2">
<rect width="200" height="200" fill="white"/>
</clipPath>
</defs>
</svg>
