<svg width="200" height="47" viewBox="0 0 200 47" fill="none" xmlns="http://www.w3.org/2000/svg">
  <g clip-path="url(#clip0_94_2)">
    <path d="M44 4V19.5039H45.0847V4H44Z" fill="#0049F4" stroke="#0049F4" stroke-width="0.53833" stroke-miterlimit="2"/>
    <path d="M62.2841 12.8151C61.7311 12.1506 60.9228 11.7298 59.8594 11.5083C60.6038 11.2647 61.2206 10.8217 61.6673 10.2016C62.1139 9.60355 62.3479 8.87266 62.3479 7.96457C62.3479 6.70211 61.88 5.72758 60.9867 5.04098C60.0933 4.35438 58.8385 4 57.222 4H51.0113V4.97453H57.1794C58.4769 4.97453 59.4765 5.24031 60.1784 5.77188C60.8803 6.30344 61.2419 7.05648 61.2419 8.05316C61.2419 9.07199 60.8803 9.84719 60.1784 10.3787C59.4765 10.9103 58.4769 11.1539 57.1794 11.1539H51.0113V12.1285H57.6474C59.0724 12.1285 60.1784 12.3943 60.9228 12.9037C61.6673 13.4352 62.0501 14.2326 62.0501 15.3179C62.0501 16.4253 61.6673 17.2226 60.9228 17.7542C60.1784 18.2857 59.0937 18.5294 57.6474 18.5294H51.0113V19.5039H57.6474C59.4553 19.5039 60.8165 19.1495 61.7524 18.4408C62.6669 17.732 63.1349 16.7354 63.1349 15.4064C63.1349 14.3655 62.8371 13.5017 62.2841 12.8151Z" fill="#0C51F1" stroke="#0C51F1" stroke-width="0.53833" stroke-miterlimit="2"/>
    <path d="M81.8237 19.5039H82.8872L82.8659 4H81.9726L75.3153 15.9823L68.658 4H67.7434V19.5039H68.8069V6.28129L75.0388 17.4441H75.5705L81.8025 6.23699L81.8237 19.5039Z" fill="#1866F3" stroke="#1866F3" stroke-width="0.53833" stroke-miterlimit="2"/>
    <path d="M47.7647 37.9757C48.9345 38.6623 50.2532 38.9945 51.7208 38.9945C52.7843 38.9945 53.7626 38.8174 54.6772 38.4408C55.5918 38.0865 56.3788 37.5327 57.0169 36.824L56.3362 36.0931C55.1239 37.3334 53.5925 37.9536 51.7633 37.9536C50.5084 37.9536 49.3812 37.6656 48.3602 37.0676C47.3393 36.4918 46.5311 35.6723 45.9568 34.6313C45.3612 33.5903 45.0847 32.4165 45.0847 31.1318C45.0847 29.8472 45.3612 28.6955 45.9568 27.6545C46.5311 26.6136 47.3393 25.7941 48.3602 25.1961C49.3812 24.6202 50.5084 24.3101 51.7633 24.3101C53.6138 24.3101 55.1452 24.9303 56.3362 26.1484L57.0169 25.4175C56.3788 24.7088 55.5918 24.1772 54.6985 23.8229C53.7839 23.4685 52.7843 23.2691 51.7208 23.2691C50.2532 23.2691 48.9345 23.6235 47.7647 24.288C46.5949 24.9746 45.6803 25.9048 44.9997 27.1008C44.319 28.2968 44 29.6479 44 31.1318C44 32.6379 44.319 33.9668 44.9997 35.1629C45.6803 36.3589 46.5949 37.3113 47.7647 37.9757Z" fill="#1887FD" stroke="#1887FD" stroke-width="0.53833" stroke-miterlimit="2"/>
    <path d="M63.438 37.9757C64.6078 38.6623 65.9265 38.9945 67.3941 38.9945C68.8404 38.9945 70.1591 38.6623 71.3502 37.9757C72.52 37.3113 73.4346 36.3589 74.1152 35.1629C74.7958 33.9668 75.1361 32.6379 75.1361 31.1318C75.1361 29.6479 74.7958 28.2968 74.1152 27.1008C73.4346 25.9048 72.52 24.9746 71.3502 24.288C70.1591 23.6235 68.8404 23.2691 67.3941 23.2691C65.9265 23.2691 64.6078 23.6235 63.438 24.3101C62.2469 24.9967 61.3323 25.927 60.6517 27.123C59.971 28.319 59.652 29.67 59.652 31.1318C59.652 32.6158 59.971 33.9447 60.6517 35.1407C61.3323 36.3367 62.2469 37.2891 63.438 37.9757ZM70.7759 37.0676C69.755 37.6656 68.6277 37.9536 67.3941 37.9536C66.1392 37.9536 65.0119 37.6656 63.991 37.0676C62.97 36.4918 62.1831 35.6723 61.6088 34.6313C61.0133 33.5903 60.7367 32.4165 60.7367 31.1318C60.7367 29.8472 61.0133 28.6955 61.6088 27.6545C62.1831 26.6136 62.97 25.7941 63.991 25.1961C65.0119 24.6202 66.1392 24.3101 67.3941 24.3101C68.6277 24.3101 69.755 24.6202 70.7759 25.1961C71.7756 25.7941 72.5625 26.6136 73.1581 27.6545C73.7323 28.6955 74.0301 29.8472 74.0301 31.1318C74.0301 32.4165 73.7323 33.5903 73.1581 34.6313C72.5625 35.6723 71.7756 36.4918 70.7759 37.0676Z" fill="#297CE8" stroke="#297CE8" stroke-width="0.53833" stroke-miterlimit="2"/>
    <path d="M92.4411 27.1451C91.7605 25.9713 90.8247 25.0632 89.6336 24.3766C88.4425 23.7121 87.06 23.3799 85.5286 23.3799H79.637V24.3987H85.4435C86.8048 24.3987 88.0171 24.6866 89.0806 25.2625C90.1228 25.8384 90.931 26.6357 91.5053 27.6324C92.0583 28.6512 92.3561 29.8251 92.3561 31.1318C92.3561 32.4607 92.0583 33.6125 91.5053 34.6313C90.931 35.6501 90.1228 36.4475 89.0806 37.0233C88.0171 37.5992 86.8048 37.865 85.4435 37.865H80.7217V31.1318H79.637V38.8838H85.5286C87.06 38.8838 88.4425 38.5516 89.6336 37.8871C90.8247 37.2227 91.7605 36.3146 92.4411 35.1407C93.1005 33.9668 93.4408 32.6379 93.4408 31.1318C93.4408 29.6479 93.1005 28.319 92.4411 27.1451Z" fill="#3181EA" stroke="#3181EA" stroke-width="0.53833" stroke-miterlimit="2"/>
    <path d="M107.583 30.5117H97.9477V31.5084H107.583V30.5117ZM107.583 23.3799H97.9477V24.3987H107.583V23.3799ZM97.9477 37.865V38.8838H107.583V37.865H97.9477Z" fill="#2999E8" stroke="#2999E8" stroke-width="0.53833" stroke-miterlimit="2"/>
    <path d="M111.243 32.4386V33.4353H116.71V32.4386H111.243Z" fill="#46ADF0" stroke="#46ADF0" stroke-width="0.53833" stroke-miterlimit="2"/>
    <path d="M126.513 23.3799H125.428L118.579 38.8838H119.749L125.96 24.6202L132.192 38.8838H133.362L126.513 23.3799Z" fill="#3AA9F0" stroke="#3AA9F0" stroke-width="0.53833" stroke-miterlimit="2"/>
    <path d="M137.59 38.4187C138.568 38.8174 139.611 38.9945 140.717 38.9945C141.886 38.9945 142.886 38.8174 143.694 38.4408C144.503 38.0865 145.098 37.577 145.481 36.9569C145.864 36.3367 146.076 35.6501 146.076 34.8971C146.076 33.989 145.843 33.2581 145.375 32.7265C144.907 32.195 144.354 31.7741 143.716 31.5084C143.056 31.2426 142.184 30.9768 141.099 30.6889C140.121 30.4452 139.334 30.2016 138.781 29.9801C138.207 29.7586 137.739 29.4486 137.356 29.0277C136.973 28.6291 136.782 28.0754 136.782 27.3666C136.782 26.4585 137.122 25.7055 137.845 25.1296C138.547 24.5538 139.589 24.2658 140.972 24.2658C141.652 24.2658 142.354 24.3766 143.078 24.5981C143.801 24.8195 144.46 25.1518 145.056 25.5726L145.46 24.6645C144.864 24.2437 144.184 23.9115 143.397 23.6457C142.588 23.402 141.78 23.2691 140.972 23.2691C139.781 23.2691 138.802 23.4685 138.015 23.8229C137.228 24.1994 136.654 24.7088 136.271 25.329C135.888 25.9491 135.697 26.6357 135.697 27.3888C135.697 28.319 135.91 29.072 136.378 29.6258C136.846 30.1795 137.399 30.5781 138.058 30.8439C138.717 31.1097 139.589 31.3976 140.695 31.6634C141.652 31.907 142.418 32.1285 142.992 32.35C143.545 32.5715 144.035 32.9037 144.417 33.3024C144.8 33.7232 144.992 34.2769 144.992 34.9635C144.992 35.8716 144.63 36.6025 143.907 37.1562C143.184 37.7321 142.099 37.9979 140.695 37.9979C139.717 37.9979 138.781 37.8207 137.888 37.4663C136.994 37.1119 136.293 36.6247 135.782 36.0488L135.293 36.8904C135.846 37.5106 136.612 38.02 137.59 38.4187Z" fill="#5ABAED" stroke="#5ABAED" stroke-width="0.53833" stroke-miterlimit="2"/>
    <path d="M151.29 38.4187C152.268 38.8174 153.31 38.9945 154.416 38.9945C155.586 38.9945 156.586 38.8174 157.394 38.4408C158.202 38.0865 158.798 37.577 159.18 36.9569C159.563 36.3367 159.776 35.6501 159.776 34.8971C159.776 33.989 159.542 33.2581 159.074 32.7265C158.606 32.195 158.053 31.7741 157.415 31.5084C156.756 31.2426 155.884 30.9768 154.799 30.6889C153.821 30.4452 153.034 30.2016 152.481 29.9801C151.906 29.7586 151.438 29.4486 151.056 29.0277C150.673 28.6291 150.481 28.0754 150.481 27.3666C150.481 26.4585 150.822 25.7055 151.545 25.1296C152.247 24.5538 153.289 24.2658 154.671 24.2658C155.352 24.2658 156.054 24.3766 156.777 24.5981C157.5 24.8195 158.16 25.1518 158.755 25.5726L159.159 24.6645C158.564 24.2437 157.883 23.9115 157.096 23.6457C156.288 23.402 155.48 23.2691 154.671 23.2691C153.48 23.2691 152.502 23.4685 151.715 23.8229C150.928 24.1994 150.354 24.7088 149.971 25.329C149.588 25.9491 149.397 26.6357 149.397 27.3888C149.397 28.319 149.609 29.072 150.077 29.6258C150.545 30.1795 151.098 30.5781 151.757 30.8439C152.417 31.1097 153.289 31.3976 154.395 31.6634C155.352 31.907 156.118 32.1285 156.692 32.35C157.245 32.5715 157.734 32.9037 158.117 33.3024C158.5 33.7232 158.691 34.2769 158.691 34.9635C158.691 35.8716 158.33 36.6025 157.607 37.1562C156.883 37.7321 155.799 37.9979 154.395 37.9979C153.416 37.9979 152.481 37.8207 151.587 37.4663C150.694 37.1119 149.992 36.6247 149.482 36.0488L148.992 36.8904C149.545 37.5106 150.311 38.02 151.29 38.4187Z" fill="#62F6EC" stroke="#62F6EC" stroke-width="0.53833" stroke-miterlimit="2"/>
    <path d="M164.202 23.3799V38.8838H165.287V23.3799H164.202Z" fill="#57FFEB" stroke="#57FFEB" stroke-width="0.53833" stroke-miterlimit="2"/>
    <path d="M172 38.4187C172.979 38.8174 174.021 38.9945 175.127 38.9945C176.297 38.9945 177.296 38.8174 178.105 38.4408C178.913 38.0865 179.508 37.577 179.891 36.9569C180.274 36.3367 180.487 35.6501 180.487 34.8971C180.487 33.989 180.253 33.2581 179.785 32.7265C179.317 32.195 178.764 31.7741 178.126 31.5084C177.467 31.2426 176.595 30.9768 175.51 30.6889C174.531 30.4452 173.744 30.2016 173.191 29.9801C172.617 29.7586 172.149 29.4486 171.766 29.0277C171.384 28.6291 171.192 28.0754 171.192 27.3666C171.192 26.4585 171.532 25.7055 172.256 25.1296C172.958 24.5538 174 24.2658 175.382 24.2658C176.063 24.2658 176.765 24.3766 177.488 24.5981C178.211 24.8195 178.87 25.1518 179.466 25.5726L179.87 24.6645C179.275 24.2437 178.594 23.9115 177.807 23.6457C176.999 23.402 176.19 23.2691 175.382 23.2691C174.191 23.2691 173.213 23.4685 172.426 23.8229C171.639 24.1994 171.065 24.7088 170.682 25.329C170.299 25.9491 170.107 26.6357 170.107 27.3888C170.107 28.319 170.32 29.072 170.788 29.6258C171.256 30.1795 171.809 30.5781 172.468 30.8439C173.128 31.1097 174 31.3976 175.106 31.6634C176.063 31.907 176.829 32.1285 177.403 32.35C177.956 32.5715 178.445 32.9037 178.828 33.3024C179.211 33.7232 179.402 34.2769 179.402 34.9635C179.402 35.8716 179.041 36.6025 178.317 37.1562C177.594 37.7321 176.51 37.9979 175.106 37.9979C174.127 37.9979 173.191 37.8207 172.298 37.4663C171.405 37.1119 170.703 36.6247 170.193 36.0488L169.703 36.8904C170.256 37.5106 171.022 38.02 172 38.4187Z" fill="#72FFC1" stroke="#72FFC1" stroke-width="0.53833" stroke-miterlimit="2"/>
    <path d="M187.555 24.3987V38.8838H188.64V24.3987H194V23.3799H182.196V24.3987H187.555Z" fill="#3AF6A4" stroke="#3AF6A4" stroke-width="0.53833" stroke-miterlimit="2"/>
    <path d="M25.3756 40.3605L26.1884 40.3593L26.1764 32.1818L25.3636 32.183L25.3756 40.3605Z" fill="#46ABFF" stroke="#5ABAED" stroke-width="0.53833" stroke-miterlimit="2"/>
    <path d="M19.9366 31.6364H19.3362L15.5455 40.3636H16.1929L19.6305 32.3345L23.0798 40.3636H23.7273L19.9366 31.6364Z" fill="#6EFEC0" stroke="#5AE6ED" stroke-width="0.53833" stroke-miterlimit="2"/>
    <path d="M33.5192 7.89268L21.9808 1.13171C21.6827 0.956098 21.3173 0.956098 21.0192 1.13171L9.48077 7.89268C9.18269 8.06829 9 8.39024 9 8.74146V22.2634C9 22.6146 9.18269 22.9366 9.48077 23.1122L21.0192 29.8732C21.1635 29.961 21.3365 30 21.5 30C21.6635 30 21.8365 29.961 21.9808 29.8732L33.5192 23.1122C33.8173 22.9366 34 22.6146 34 22.2634V8.74146C34 8.39024 33.8173 8.06829 33.5192 7.89268ZM21.5 3.10244L31.1154 8.73171L29.125 9.90244L23.9038 6.83902C23.7596 6.75122 23.5865 6.71219 23.4231 6.71219C23.2596 6.71219 23.0865 6.75122 22.9423 6.83902L17.1731 10.2146C16.875 10.3902 16.6923 10.7122 16.6923 11.0634V11.5415L11.8846 8.73171L21.5 3.10244ZM28.2308 17.3659L23.4231 20.1854L22.4615 19.6293V16.0683L23.8846 15.239L28.2308 12.6927V17.3756V17.3659ZM21.5 14.3707L19.7212 13.3268L18.6058 12.6732V11.6293L23.4135 8.80976L27.1923 11.0244L23.875 12.9659L21.4904 14.361L21.5 14.3707ZM18.6154 16.5854V14.9268L19.0577 15.1902L20.5385 16.0585V18.4976L18.6154 17.3659V16.5854ZM10.9231 10.4195L16.6923 13.7951V17.122L12.0385 19.9024L10.9231 20.5561V10.4195ZM20.5385 27.3171L11.8846 22.2439L13.1827 21.4829L17.4519 18.9268L20.5385 20.7317V27.3073V27.3171ZM22.4615 27.3171V21.8634L22.9423 22.1463C23.0865 22.2341 23.2596 22.2732 23.4231 22.2732C23.5865 22.2732 23.7596 22.2341 23.9038 22.1463L27.4231 20.0878L30.9135 22.1366L31.1154 22.2537L22.4615 27.3268V27.3171ZM32.0769 20.5659L31.7885 20.3902L29.3462 18.9561L29.6731 18.7707C29.9712 18.5951 30.1538 18.2732 30.1538 17.9219V11.5512L32.0769 10.4195V20.5561V20.5659Z" fill="url(#paint0_linear_94_2)"/>
  </g>
  <defs>
    <linearGradient id="paint0_linear_94_2" x1="42" y1="34" x2="6.32158" y2="9.31704" gradientUnits="userSpaceOnUse">
      <stop offset="0.25" stop-color="#6EFEC0"/>
      <stop offset="0.5" stop-color="#66FEEC"/>
      <stop offset="1" stop-color="#033DF4"/>
    </linearGradient>
    <clipPath id="clip0_94_2">
      <rect width="200" height="47" fill="white"/>
    </clipPath>
  </defs>
</svg>