<svg width="32" height="31" viewBox="0 0 32 31" fill="none" xmlns="http://www.w3.org/2000/svg">
  <path d="M28.5192 7.89268L16.9808 1.13171C16.6827 0.956098 16.3173 0.956098 16.0192 1.13171L4.48077 7.89268C4.18269 8.06829 4 8.39024 4 8.74146V22.2634C4 22.6146 4.18269 22.9366 4.48077 23.1122L16.0192 29.8732C16.1635 29.961 16.3365 30 16.5 30C16.6635 30 16.8365 29.961 16.9808 29.8732L28.5192 23.1122C28.8173 22.9366 29 22.6146 29 22.2634V8.74146C29 8.39024 28.8173 8.06829 28.5192 7.89268ZM16.5 3.10244L26.1154 8.73171L24.125 9.90244L18.9038 6.83902C18.7596 6.75122 18.5865 6.71219 18.4231 6.71219C18.2596 6.71219 18.0865 6.75122 17.9423 6.83902L12.1731 10.2146C11.875 10.3902 11.6923 10.7122 11.6923 11.0634V11.5415L6.88462 8.73171L16.5 3.10244ZM23.2308 17.3659L18.4231 20.1854L17.4615 19.6293V16.0683L18.8846 15.239L23.2308 12.6927V17.3756V17.3659ZM16.5 14.3707L14.7212 13.3268L13.6058 12.6732V11.6293L18.4135 8.80976L22.1923 11.0244L18.875 12.9659L16.4904 14.361L16.5 14.3707ZM13.6154 16.5854V14.9268L14.0577 15.1902L15.5385 16.0585V18.4976L13.6154 17.3659V16.5854ZM5.92308 10.4195L11.6923 13.7951V17.122L7.03846 19.9024L5.92308 20.5561V10.4195ZM15.5385 27.3171L6.88462 22.2439L8.18269 21.4829L12.4519 18.9268L15.5385 20.7317V27.3073V27.3171ZM17.4615 27.3171V21.8634L17.9423 22.1463C18.0865 22.2341 18.2596 22.2732 18.4231 22.2732C18.5865 22.2732 18.7596 22.2341 18.9038 22.1463L22.4231 20.0878L25.9135 22.1366L26.1154 22.2537L17.4615 27.3268V27.3171ZM27.0769 20.5659L26.7885 20.3902L24.3462 18.9561L24.6731 18.7707C24.9712 18.5951 25.1538 18.2732 25.1538 17.9219V11.5512L27.0769 10.4195V20.5561V20.5659Z" fill="url(#paint0_linear_94_61)"/>
  <defs>
    <linearGradient id="paint0_linear_94_61" x1="37" y1="34" x2="1.32158" y2="9.31704" gradientUnits="userSpaceOnUse">
      <stop offset="0.25" stop-color="#6EFEC0"/>
      <stop offset="0.5" stop-color="#66FEEC"/>
      <stop offset="1" stop-color="#033DF4"/>
    </linearGradient>
  </defs>
</svg>