<svg width="200" height="200" viewBox="0 0 200 200" fill="none" xmlns="http://www.w3.org/2000/svg">
<g clip-path="url(#clip0_167_8)">
<path d="M107.292 47.9167C111.25 45.4861 113.889 41.0764 113.889 36.1111C113.889 28.4375 107.674 22.2222 100 22.2222C92.3264 22.2222 86.1111 28.4375 86.1111 36.1111C86.1111 41.1111 88.75 45.4861 92.7083 47.9167L72.8125 87.7083C69.6528 94.0278 61.4583 95.8333 55.9375 91.4236L25 66.6667C26.7361 64.3403 27.7778 61.4583 27.7778 58.3333C27.7778 50.6597 21.5625 44.4444 13.8889 44.4444C6.21528 44.4444 0 50.6597 0 58.3333C0 66.0069 6.21528 72.2222 13.8889 72.2222C13.9583 72.2222 14.0625 72.2222 14.1319 72.2222L30 159.514C31.9097 170.069 41.1111 177.778 51.875 177.778H148.125C158.854 177.778 168.056 170.104 170 159.514L185.868 72.2222C185.937 72.2222 186.042 72.2222 186.111 72.2222C193.785 72.2222 200 66.0069 200 58.3333C200 50.6597 193.785 44.4444 186.111 44.4444C178.437 44.4444 172.222 50.6597 172.222 58.3333C172.222 61.4583 173.264 64.3403 175 66.6667L144.062 91.4236C138.542 95.8333 130.347 94.0278 127.187 87.7083L107.292 47.9167Z" fill="#C0C0C0"/>
<path d="M98.1673 123.143C96.488 123.143 94.8712 123.826 93.684 125.055L91.2705 127.53C90.2941 128.535 88.7086 128.535 87.7323 127.53C86.7559 126.526 86.7559 124.895 87.7323 123.89L90.1457 121.415C92.2781 119.229 95.1602 118 98.1673 118C104.424 118 109.501 123.223 109.501 129.66C109.501 132.754 108.306 135.719 106.181 137.904L95.5429 148.857H109.501C110.883 148.857 112 150.006 112 151.429C112 152.851 110.883 154 109.501 154H89.5053C88.4977 154 87.5838 153.373 87.1933 152.409C86.8028 151.445 87.0215 150.344 87.7323 149.604L102.643 134.272C103.83 133.051 104.502 131.388 104.502 129.66C104.502 126.06 101.666 123.143 98.1673 123.143Z" fill="white"/>
</g>
<defs>
<clipPath id="clip0_167_8">
<rect width="200" height="200" fill="white"/>
</clipPath>
</defs>
</svg>
